<svg width="32" height="32" viewBox="0 0 32 32" fill="none" xmlns="http://www.w3.org/2000/svg">
<path fill-rule="evenodd" clip-rule="evenodd" d="M15.9999 3.32111C8.82119 3.32111 3 9.141 3 16.321C3 22.0649 6.72487 26.9376 11.8901 28.6568C12.5396 28.7773 12.7781 28.3748 12.7781 28.0314C12.7781 27.7214 12.7661 26.6974 12.7605 25.6111C9.14389 26.3975 8.38074 24.0773 8.38074 24.0773C7.78939 22.5747 6.93734 22.1751 6.93734 22.1751C5.75764 21.3683 7.02625 21.3851 7.02625 21.3851C8.33145 21.4766 9.01903 22.7247 9.01903 22.7247C10.1785 24.7117 12.0602 24.1373 12.802 23.8054C12.9187 22.9652 13.2556 22.3915 13.6274 22.0668C10.7399 21.7386 7.70436 20.6237 7.70436 15.6425C7.70436 14.2232 8.2124 13.0635 9.044 12.1529C8.90881 11.8257 8.46384 10.5035 9.16972 8.71283C9.16972 8.71283 10.2612 8.36344 12.7454 10.0454C13.7826 9.75712 14.8949 9.61224 15.9999 9.60729C17.1042 9.61224 18.2172 9.75669 19.2563 10.0449C21.7376 8.36301 22.8277 8.7124 22.8277 8.7124C23.5353 10.5028 23.0903 11.8252 22.9554 12.1525C23.7889 13.0631 24.2933 14.2227 24.2933 15.642C24.2933 20.6351 21.2521 21.7342 18.3573 22.0563C18.8238 22.4597 19.2393 23.2511 19.2393 24.4637C19.2393 26.2031 19.2242 27.603 19.2242 28.0312C19.2242 28.3771 19.4585 28.7825 20.1172 28.6548C25.2794 26.9339 29 22.0628 29 16.321C28.9998 9.14143 23.1792 3.32111 15.9999 3.32111Z" fill="#C0C4CD"/>
<path d="M7.92372 21.9859C7.89509 22.0505 7.79348 22.0699 7.70091 22.0257C7.60619 21.9835 7.55345 21.8955 7.58402 21.8307C7.612 21.764 7.71383 21.7457 7.8079 21.7902C7.90262 21.8326 7.95666 21.9213 7.92372 21.9859ZM8.45028 22.5734C8.38849 22.6309 8.26729 22.6042 8.18506 22.5131C8.09981 22.4227 8.08388 22.3015 8.14696 22.2432C8.21111 22.1859 8.32865 22.213 8.41389 22.3034C8.49871 22.3951 8.51529 22.515 8.45028 22.5734ZM8.96306 23.3219C8.8834 23.3774 8.75295 23.3255 8.67244 23.2099C8.59279 23.0941 8.59279 22.9553 8.67459 22.9C8.75489 22.8444 8.88341 22.8946 8.96521 23.0091C9.04443 23.1264 9.04443 23.2655 8.96306 23.3219ZM9.66506 24.0454C9.59402 24.124 9.44204 24.1029 9.33096 23.9959C9.21751 23.8911 9.18586 23.7419 9.25712 23.6635C9.32945 23.5847 9.48208 23.6067 9.59381 23.713C9.70725 23.8177 9.74105 23.9673 9.66506 24.0454ZM10.6338 24.4654C10.6021 24.5672 10.4562 24.6135 10.3087 24.57C10.1617 24.5255 10.0655 24.4064 10.0956 24.3035C10.1257 24.2008 10.2728 24.1528 10.4211 24.1991C10.5681 24.2435 10.6644 24.3619 10.6338 24.4654ZM11.6979 24.5431C11.7015 24.6503 11.5767 24.739 11.4223 24.7412C11.2667 24.7448 11.1408 24.6579 11.1392 24.5524C11.1392 24.4441 11.2615 24.3565 11.417 24.3535C11.5713 24.3507 11.6979 24.437 11.6979 24.5431ZM12.6877 24.3748C12.7062 24.4792 12.5988 24.5866 12.4453 24.6152C12.2946 24.6432 12.1547 24.5782 12.1353 24.4747C12.1168 24.3675 12.2262 24.26 12.3769 24.2323C12.5306 24.2058 12.6683 24.2687 12.6877 24.3748Z" fill="#C0C4CD"/>
</svg>
