<svg width="32" height="32" viewBox="0 0 32 32" fill="none" xmlns="http://www.w3.org/2000/svg">
<path d="M3.00049 21.7467L6.01866 19.95C6.60086 20.9659 7.13091 21.8251 8.40151 21.8251C9.61902 21.8251 10.3871 21.3586 10.3871 19.533V7.13486H14.0936V19.5843C14.0936 23.3606 11.8435 25.0799 8.56081 25.0799C7.40029 25.1417 6.24795 24.8562 5.25557 24.2611C4.26319 23.6659 3.47636 22.7899 3.00049 21.7467ZM16.1076 21.3549L19.1258 19.6356C19.4614 20.3054 19.9822 20.8684 20.6285 21.26C21.2748 21.6516 22.0203 21.8559 22.7793 21.8493C24.3154 21.8493 25.2939 21.0937 25.2939 20.0517C25.2939 18.8016 24.2879 18.3585 22.5934 17.6261L21.6699 17.2399C18.9959 16.1205 17.2218 14.7137 17.2218 11.7443C17.2218 9.00904 19.3401 6.9259 22.6494 6.9259C23.7216 6.84944 24.793 7.0853 25.7299 7.60408C26.6668 8.12285 27.4277 8.90156 27.9176 9.84304L25.0313 11.6668C24.8418 11.1995 24.5125 10.7998 24.087 10.5207C23.6614 10.2417 23.1598 10.0964 22.6484 10.1043C22.4255 10.0821 22.2003 10.1058 21.9873 10.1741C21.7742 10.2423 21.5779 10.3535 21.411 10.5005C21.2441 10.6476 21.1101 10.8272 21.0177 11.028C20.9253 11.2288 20.8765 11.4464 20.8743 11.6668C20.8743 12.7611 21.5627 13.2033 23.15 13.8806L24.0764 14.2715C27.2273 15.5999 29.0005 16.9545 29.0005 20.0013C29.0005 23.2832 26.3796 25.0809 22.8589 25.0809C19.4169 25.0809 17.1933 23.4651 16.1076 21.3549Z" fill="#EABD5F"/>
</svg>
