<svg width="32" height="32" viewBox="0 0 32 32" fill="none" xmlns="http://www.w3.org/2000/svg">
<path d="M16.7479 25.2578C16.5168 25.0534 16.2757 24.8484 16.0453 24.6213C15.8612 24.7914 15.6887 24.9509 15.5061 25.1097C13.2266 27.0747 10.877 27.8928 9.48415 27.0975C8.13679 26.3364 7.71232 24.088 8.25157 21.2594C8.30909 20.9527 8.37817 20.6461 8.4588 20.3395C8.2169 20.2683 7.98657 20.2028 7.75623 20.1259C4.88816 19.1469 3 17.5571 3 15.9666C3 14.4337 4.76182 12.9457 7.51356 11.9917C7.82171 11.8891 8.1468 11.7873 8.48114 11.6962C8.4041 11.4007 8.34324 11.1167 8.28547 10.8418C7.70924 7.97047 8.11213 5.6765 9.47106 4.90402C10.887 4.08597 13.2366 4.96098 15.5962 7.01643C15.7341 7.14102 15.8728 7.27772 16.0222 7.41371C16.241 7.20937 16.4482 7.00504 16.667 6.82348C18.9011 4.90117 21.1228 4.09736 22.4817 4.86984C23.8977 5.6644 24.3129 8.11784 23.6797 11.1508C23.645 11.3445 23.6026 11.526 23.5533 11.7204C23.8414 11.8001 24.1288 11.8906 24.3938 11.9817C27.2033 12.9357 29.0229 14.4237 28.9998 15.9908C28.9998 17.592 27.0538 19.1712 24.0695 20.148C23.9084 20.1935 23.7474 20.2505 23.5857 20.2953C23.655 20.5225 23.7004 20.7496 23.7467 20.9767C24.3452 23.9186 23.8846 26.3264 22.4917 27.1217C22.126 27.3252 21.7053 27.4289 21.2784 27.4207C20.0019 27.4186 18.3811 26.6418 16.7479 25.2578ZM19.0051 21.0892C18.3437 22.0401 17.6167 22.9507 16.8288 23.8153C17.0476 24.0289 17.2664 24.2247 17.4852 24.4063C19.3849 26.0189 21.1351 26.6212 21.9533 26.1556C22.2031 25.9567 22.4073 25.7135 22.5536 25.4404C22.6999 25.1674 22.7855 24.8699 22.8053 24.5657C22.9715 23.4386 22.9246 22.2933 22.6666 21.181C22.632 20.9767 22.5896 20.7724 22.5287 20.5566C21.3686 20.8076 20.1913 20.9855 19.0051 21.0892ZM9.3555 21.453C8.88404 23.8737 9.22916 25.6778 10.0488 26.1442C10.3392 26.2563 10.6528 26.3081 10.9672 26.2958C11.2817 26.2835 11.5893 26.2074 11.8684 26.073C12.9542 25.6512 13.943 25.0421 14.7819 24.2781C14.9545 24.1414 15.1155 23.9826 15.2888 23.8239C14.4836 22.959 13.7374 22.0485 13.0548 21.0977C11.8731 21.0065 10.6996 20.84 9.5427 20.5994C9.47106 20.8962 9.41328 21.1796 9.3555 21.453ZM16.0577 23.0428C16.5646 22.4861 17.0707 21.8731 17.5776 21.1917C17.0707 21.2145 16.5415 21.2259 16.0114 21.2259C15.4814 21.2259 14.9869 21.2145 14.4915 21.1917C15.0092 21.861 15.5284 22.4861 16.0577 23.0428ZM13.6387 11.9575C13.2012 12.5819 12.7751 13.239 12.3722 13.9339C11.9693 14.6153 11.6019 15.308 11.2668 15.9986C11.6127 16.68 11.9809 17.3727 12.3838 18.0776C12.7867 18.7589 13.2127 19.4303 13.6503 20.0647C14.4099 20.1102 15.2049 20.1359 16.0107 20.1359C16.8165 20.1359 17.6223 20.1131 18.3942 20.0568C18.8086 19.4324 19.2346 18.7618 19.6383 18.069C20.042 17.3763 20.421 16.6721 20.7553 15.9908C20.421 15.3208 20.0412 14.6281 19.6383 13.9346C19.2354 13.2412 18.8094 12.5819 18.3834 11.9582C17.613 11.9012 16.8172 11.8671 16.0114 11.8671C15.2056 11.8671 14.4106 11.9005 13.6387 11.9575ZM9.83929 19.5556C10.6293 19.7224 11.429 19.8477 12.2344 19.9308C11.9578 19.4994 11.682 19.0672 11.417 18.613C11.1635 18.1701 10.9101 17.7273 10.6798 17.2844C10.3462 18.0562 10.0696 18.8187 9.83929 19.5556ZM20.6051 18.6016C20.3401 19.0558 20.0751 19.4873 19.8109 19.908C20.6283 19.8134 21.4395 19.6769 22.2406 19.4994C21.9905 18.7327 21.6984 17.9782 21.3655 17.2389C21.1236 17.6931 20.8701 18.1473 20.6051 18.6016ZM7.87024 13.0361C5.5214 13.8542 4.10547 15.0453 4.10547 15.978C4.15025 16.278 4.25871 16.567 4.42462 16.8282C4.59053 17.0894 4.81063 17.3178 5.07228 17.5002C5.97097 18.1986 7.00155 18.7376 8.11214 19.09C8.31936 19.1612 8.53815 19.2153 8.75693 19.2836C9.11063 18.1664 9.53743 17.0701 10.035 16.0008C9.53647 14.9497 9.1134 13.8694 8.76849 12.767C8.45777 12.8439 8.15836 12.9336 7.87024 13.0361ZM21.9987 15.978C22.5097 17.0338 22.9471 18.1186 23.3083 19.226C23.4586 19.1804 23.608 19.1348 23.7459 19.0893C26.3135 18.2492 27.9059 16.9655 27.9143 15.9659C27.9143 15.0346 26.4406 13.83 24.034 13.0126C23.7921 12.9336 23.5279 12.8539 23.2637 12.7741C22.9148 13.8654 22.4923 14.9355 21.9987 15.978ZM20.5943 13.3658C20.8593 13.82 21.1128 14.2636 21.3424 14.7064C21.6623 13.9826 21.939 13.2432 22.1713 12.4915C21.3892 12.3158 20.5974 12.1794 19.7993 12.0828C20.0759 12.5021 20.3409 12.9229 20.5943 13.3658ZM9.85085 12.4822C10.082 13.2091 10.3577 13.9474 10.6798 14.7078C10.9109 14.265 11.1635 13.8221 11.417 13.3793C11.6704 12.9364 11.9347 12.505 12.2112 12.0842C11.3823 12.1846 10.5996 12.3206 9.85085 12.4822ZM17.3927 7.65506C17.197 7.82522 17.0014 8.00678 16.8049 8.18904C17.6045 9.04304 18.3394 9.94701 19.0043 10.8945C20.1761 10.9991 21.3382 11.1813 22.4817 11.4399C22.528 11.2697 22.5588 11.0989 22.5973 10.9287C23.1365 8.31648 22.8045 6.31728 21.9294 5.81819C21.7373 5.71854 21.5194 5.6693 21.2992 5.67579C20.3586 5.67152 18.9149 6.3486 17.3927 7.65293V7.65506ZM10.0234 5.84666C9.20605 6.31229 8.88327 8.1748 9.36706 10.6282C9.42484 10.8895 9.48261 11.1501 9.55117 11.4228C10.6962 11.1737 11.8579 10.9954 13.0286 10.8888C13.6959 9.94012 14.4347 9.03606 15.2395 8.18334C15.1132 8.05804 14.9745 7.94483 14.8482 7.83092C13.2458 6.43048 11.7051 5.69146 10.699 5.69146C10.4626 5.684 10.2286 5.73776 10.0234 5.84666ZM17.5537 10.7984C17.0789 10.1634 16.5666 9.55305 16.0192 8.97007C15.5015 9.52612 14.983 10.1398 14.4784 10.7984C14.9853 10.7756 15.4915 10.7642 16.0099 10.7642C16.5284 10.7642 17.0468 10.7735 17.5537 10.7984ZM13.7081 16.0235C13.6973 15.7316 13.7489 15.4406 13.86 15.1672C13.9711 14.8937 14.1396 14.6433 14.3556 14.4301C14.5717 14.2169 14.8311 14.0453 15.1191 13.9249C15.4071 13.8046 15.7179 13.738 16.0338 13.7289C16.6712 13.7489 17.2739 14.0018 17.7099 14.4319C18.1458 14.8621 18.3795 15.4344 18.3595 16.0235C18.3801 16.6131 18.1466 17.1862 17.7104 17.6168C17.2742 18.0474 16.6709 18.3005 16.033 18.3203C15.717 18.3112 15.406 18.2445 15.1179 18.1241C14.8298 18.0036 14.5703 17.8317 14.3543 17.6183C14.1382 17.4049 13.9699 17.1542 13.8591 16.8805C13.7482 16.6068 13.6968 16.3156 13.7081 16.0235Z" fill="#3996DB"/>
</svg>
